<svg xmlns="http://www.w3.org/2000/svg" width="18" height="18" viewBox="0 0 28 28"><g transform="translate(-765 -435)"><g transform="translate(768.618 435)" fill="none"><path d="M9.887,0c9.576,0,9.887,10.133,9.887,10.133H0S.311,0,9.887,0Z" stroke="none"/><path d="M 9.887102127075195 1.999996185302734 C 6.730522155761719 1.999996185302734 4.540262222290039 3.263916492462158 3.191181182861328 5.863986492156982 C 2.785469055175781 6.645915985107422 2.516857147216797 7.44097375869751 2.339359283447266 8.133337020874023 L 17.43484115600586 8.133337020874023 C 17.25734329223633 7.44097375869751 16.98872947692871 6.645915985107422 16.58301162719727 5.863986492156982 C 15.23393249511719 3.263916492462158 13.04368209838867 1.999996185302734 9.887102127075195 1.999996185302734 M 9.887102127075195 -3.814697265625e-06 C 19.46279144287109 -3.814697265625e-06 19.77420234680176 10.13333702087402 19.77420234680176 10.13333702087402 L 1.9073486328125e-06 10.13333702087402 C 1.9073486328125e-06 10.13333702087402 0.3114013671875 -3.814697265625e-06 9.887102127075195 -3.814697265625e-06 Z" stroke="none" fill="red"/></g><rect width="28" height="17" transform="translate(765 446)" fill="red"/><path d="M2.651,0A2.9,2.9,0,0,1,5.428,3,3.119,3.119,0,0,1,4.414,5.318c-.249.229,1.359,1.8,1.014,3.748a3,3,0,0,1-2.777,2.667A2.788,2.788,0,0,1-.125,9.067C-.378,7.384,1.343,5.658,1.106,5.493A3.044,3.044,0,0,1-.125,3,2.9,2.9,0,0,1,2.651,0Z" transform="translate(776.232 448.6)" fill="#fff"/></g></svg>