<svg xmlns="http://www.w3.org/2000/svg" width="17.802" height="16.672" viewBox="0 0 17.802 16.672"><defs><style>.a{fill:red;}.b{fill:#fff;}</style></defs><g transform="translate(-236.942 -520.032)"><path class="a" d="M7.473.275a8.516,8.516,0,0,1,3.11.7c.447.193-.346,1.72.072,2s2.051-.686,2.425-.318A7.12,7.12,0,0,1,14.691,5.04c.131.322-1.8,1.028-1.717,1.4.075.338,2.158.339,2.172.715a5.78,5.78,0,0,1-.566,2.728c-.129.27-2.183-.341-2.365-.076-.242.352,1.364,1.566,1.024,1.883a6.922,6.922,0,0,1-2.832,1.569c-.369.106-1.407-1.772-1.832-1.719-.4.049-.179,2.027-.621,2.013A8.5,8.5,0,0,1,4.4,12.641c-.321-.162.585-1.716.272-1.929s-1.853.9-2.155.621A7.154,7.154,0,0,1,.72,8.745c-.143-.357,2.677-.8,2.6-1.21C3.262,7.246.293,7,.281,6.673A5.757,5.757,0,0,1,.85,3.944c.157-.327,2.107.389,2.34.075.247-.333-1.213-1.688-.878-1.985A6.96,6.96,0,0,1,4.593.708c.237-.084,1.786,1.5,2,1.464C7.063,2.1,6.948.258,7.473.275Z" transform="matrix(0.966, -0.259, 0.259, 0.966, 236.603, 523.688)"/><path class="b" d="M2.707.1A2.777,2.777,0,0,1,5.486,2.578,2.355,2.355,0,0,1,2.88,4.884,2.777,2.777,0,0,1,.1,2.4,2.355,2.355,0,0,1,2.707.1Z" transform="matrix(0.966, -0.259, 0.259, 0.966, 242.718, 526.495)"/></g></svg>